<svg width="376" height="376" viewBox="0 0 376 376" fill="none" xmlns="http://www.w3.org/2000/svg">
<path d="M376 0H0V376H376V0Z" fill="#B44D33"/>
<path fill-rule="evenodd" clip-rule="evenodd" d="M244.565 0L237.344 9.41815C224.948 8.83337 211.656 8.1369 211.656 8.1369C208.86 8.18373 206.528 9.84974 205.094 12.0431C197.969 15.0612 194.746 17.2111 192.469 19.4181C189.216 22.5702 188.695 25.4479 188.312 27.7619C190.105 25.4874 191.59 23.5336 193.594 21.8556C197.235 18.8063 201.702 16.7065 206.531 15.4494C209.633 15.5545 212.688 15.259 215.719 15.3556C217.435 15.4103 219.115 15.479 220.812 15.5431L213.656 41.2619L178.469 88.5119C172.59 92.2768 166.415 98.2899 159.5 108.324L1 328.481L170.281 261.356C177.882 257.265 188.166 256.133 196 257.043C189.016 265.297 192.009 278.057 209.562 277.043H243.125L242.406 257.043H259.562C258.92 248.326 261.382 244.346 267.406 244.199H294.562C302.439 244.959 303.555 250.902 303.125 257.043H331V277.043H362.062C376.05 277.563 379.169 257.459 368.844 253.481H365.281L361.688 242.762L360.5 240.981H364.031V229.543L362.781 229.387V225.637L359.375 225.449V235.449L357.781 237.418H355.281L355.594 240.981H184.906V238.481H355.219L354.688 222.668C344.373 226.295 335.479 220.682 334.656 210.106L338.688 208.856C341.525 219.621 348.301 220.728 354.531 219.824C360.569 218.89 362.994 212.019 362.188 207.106C361.312 201.775 358.074 197.559 354.031 196.731L353.125 164.356C352.257 164.252 351.397 164.145 350.531 164.043C346.26 164.15 342.032 163.547 337.625 163.137C324.324 163.234 310.596 166.53 300.094 178.137C301.173 189.026 290.18 196.919 280.094 196.824C271.441 196.745 261.253 189.572 261.875 177.231C253.381 170.073 234.613 160.562 215.719 159.137C214.045 159.226 212.377 159.286 210.688 159.387C193.718 160.425 181.248 165.461 164.125 176.199L163.281 175.992C173.852 169.363 182.773 163.942 192.07 161.084C197.926 159.284 203.932 158.201 210.594 157.793C223.641 157.014 236.252 156.589 248.562 156.481C285.419 156.156 319.719 158.658 356 163.074V153.481H352.406V149.199L353.031 148.887C309.803 141.326 263.143 143.727 217.312 143.481C217.281 143.48 217.25 143.481 217.219 143.481C200.924 145.072 184.041 147.251 172.312 159.356L172.281 159.387H172.25L141 187.231L139.938 186.548L171.156 158.231C171.167 158.22 171.177 158.21 171.188 158.199C183.404 145.618 200.817 143.481 217.156 141.887H217.188H217.25C228.782 141.95 240.35 141.838 251.938 141.762C286.699 141.533 321.42 141.591 354.25 147.449L354.094 148.356L355.281 147.762V144.918V144.137C350.782 143.18 346.278 142.388 341.75 141.731V104.293H338.438V141.293C333.828 140.692 329.196 140.208 324.531 139.856C310.958 138.954 296.69 138.244 281.812 137.887V99.3244H277.406V137.793C255.027 137.368 231.283 137.766 206.344 139.543C206.26 139.552 206.177 139.566 206.094 139.574V101.574H202.125V140.074C193.179 141.314 184.229 143.692 175.281 149.543C173.205 151.406 171.119 153.322 169.031 155.231V121.949L166.156 124.199V157.856C162.024 161.668 157.846 165.564 153.656 169.606V140.106L150.781 142.387V172.418C147.799 175.327 144.799 178.304 141.781 181.356V155.012L138.906 157.293V183.324L134.906 183.481C134.484 183.815 133.777 183.004 132.406 179.543C130.799 181.212 129.639 180.342 128.5 179.199C128.374 173.466 129.335 167.564 132.062 161.356L171.688 109.918C182.759 97.8834 193.835 96.0017 204.906 94.1994C243.401 89.8196 281.88 90.7007 320.25 94.6682C331.472 95.5114 342.002 98.9479 354.625 101.356L354.562 97.7619L351 96.3557C348.087 91.3591 344.836 89.1664 339.656 87.1994C311.148 80.0854 285.411 76.7986 260.156 76.7619C250.283 76.7475 240.49 77.286 230.625 78.1369C228.133 75.6482 221.148 68.6656 220.094 67.7619C219.538 66.2316 219.253 65.3122 218.969 64.6682L249.812 16.9494C252.121 17.0753 254.442 17.2007 256.75 17.3244C259.764 17.486 262.783 18.1353 265.812 18.2931C269.343 20.6071 272.723 22.3666 276.562 25.9181L279.188 31.5119C279.2 28.9276 279.152 26.5169 278.5 25.2619C274.92 21.6018 270.377 14.7705 265.469 14.7306H262.594C259.677 10.4844 257.712 10.1863 254.5 10.1369C251.343 10.062 246.376 9.84964 241 9.60565L247.842 0H244.565ZM337.625 163.137C339.972 163.12 342.325 163.203 344.625 163.356C303.161 158.722 263.737 156.766 219.344 158.918C237.132 160.575 254.911 168.771 264.031 176.168C264.657 187.469 272.654 193.819 279.906 193.856C293.263 193.922 299.371 184.556 298.656 177.231C314.737 162.287 326.71 162.122 337.625 163.137ZM223.969 15.6681C226.807 15.7847 229.608 15.9092 232.406 16.0431L218.719 34.4182L223.969 15.6681ZM236.062 16.1994C239.495 16.3715 242.906 16.5771 246.312 16.7619L216.375 63.0744C215.515 62.8985 214.371 62.6889 212.719 62.3244C212.151 62.1939 211.569 62.116 211 62.1057L216.469 42.5432L236.062 16.1994ZM211.375 49.3869L207.625 62.8557C205.944 63.7228 204.836 65.3253 205.156 67.6056C205.497 69.7074 206.684 71.4642 209.188 71.3556L214.5 79.7619C210.034 80.2642 205.536 80.7999 201 81.3556C195.437 82.1963 190.11 82.99 184.656 85.2619L211.375 49.3869ZM214.75 69.9181C216.322 70.8847 217.388 70.3308 218.5 69.9181L226.062 78.5744C224.419 78.731 222.774 78.9035 221.125 79.0744L214.75 69.9181ZM263.5 146.668L296.688 147.418V155.543L263.5 154.793V146.668ZM260.438 161.324C263.243 161.146 266.039 162.364 268.844 163.293C267.576 164.134 266.246 164.824 265.438 167.043C263.454 163.904 260.934 163.033 258.5 161.699C259.147 161.488 259.79 161.366 260.438 161.324ZM301.688 162.668C302.476 162.667 303.274 162.759 304.031 162.949C301.71 163.991 299.384 164.798 297.062 168.137C296.436 166.799 295.272 165.985 294.188 165.106C296.815 163.535 299.321 162.673 301.688 162.668ZM283.156 165.418C289.708 165.418 295 170.741 295 177.293C295 183.845 289.708 189.168 283.156 189.168C276.604 189.168 271.281 183.845 271.281 177.293C271.281 170.741 276.604 165.418 283.156 165.418ZM291.719 174.012C290.743 174.012 289.969 174.786 289.969 175.762C289.969 176.738 290.743 177.543 291.719 177.543C292.695 177.543 293.5 176.738 293.5 175.762C293.5 174.786 292.695 174.012 291.719 174.012ZM210.969 196.606C214.998 196.509 219.045 198.791 220.25 204.856C216.792 204.72 212.787 205.346 209.062 207.574C206.916 206.422 204.193 205.258 201.344 204.106C201.831 199.888 206.402 196.715 210.969 196.606ZM350.969 200.168C354.43 200.18 357.728 202.13 358.906 207.106C355.623 206.977 351.848 208.271 348.312 210.387C346.275 209.293 343.673 208.2 340.969 207.106C341.813 203.484 346.08 200.49 350.281 200.199C350.513 200.183 350.738 200.167 350.969 200.168ZM183.75 204.606C187.15 204.479 190.61 205.226 193.25 207.356L198.781 205.074C198.299 213.435 203.963 217.774 210 219.418C215.393 220.887 221.842 217.163 223.031 206.824L225.312 207.106C224.576 226.053 204.122 227.88 194.75 215.387C188.824 206.484 177.914 207.499 169.031 212.949L7.40625 323.481L172.688 208.199C175.074 206.354 179.378 204.769 183.75 204.606ZM195.875 281.074C183.606 281.254 168.655 283.704 159.562 285.637L2.40625 328.481L292.062 329.199C312.091 329.178 316.536 311.005 316 301.356H325.094C340.33 302.308 349.418 290.709 348.844 282.762L203.844 281.356C201.405 281.122 198.706 281.033 195.875 281.074Z" fill="white"/>
</svg>
