<?xml version="1.0" encoding="UTF-8"?>
<svg id="svg2" xmlns="http://www.w3.org/2000/svg" viewBox="0 0 706.85 211.14">
  <defs>
    <style>
      .cls-1 {
        fill: navy;
      }

      .cls-1, .cls-2 {
        stroke-width: .68px;
      }

      .cls-1, .cls-2, .cls-3 {
        stroke: #000;
      }

      .cls-2 {
        fill: #fff;
      }

      .cls-3 {
        fill: none;
        stroke-width: 5px;
      }
    </style>
  </defs>
  <g id="layer1">
    <g id="g3352">
      <path id="path3343" d="M627.02,137.53h-57.18l-9.49,33.27h-53.46l30.92-102.3c6.34-23.08,12.36-28.35,34.02-27.97h84.68l-12.27,41.67h-57.18l-6.5,20.42,57.25-.15-10.8,35.06Zm-141.49,33.27h-93.69c-13.92-.12-24.32-3.37-18.02-27.55l25.47-84.33c2.6-9.77,8.33-18.24,26.68-18.39h98.82l-12.58,41.67h-66.36l-15.12,49.59h65.97l-11.18,39.01ZM331.86,40.52l-18.35,60.91c-2.49,7.23-2.42,7.23-5.33,1.04l-25.87-48.46c-3.53-7.16-10.02-13.3-18.98-13.48h-15.74c-14.28-.05-21.95,5.95-24.7,17.4l-34.19,112.88h50.59l17.06-57.52c1.16-4.58-1.44-4.36,.36-1.8l29.24,51.87c5.91,8.45,11.16,7.28,20.93,7.45h22.25c8,.03,18.54-2.14,21.37-12.71l35.31-117.57h-53.96ZM60.89,135.99h52.74c5.95,.31,6.97,.65,2.57-3.74l-30.99-32.29c-11.33-11.6-8.71-15.95-3.85-33.36,4.69-19.13,8.9-26.64,29.3-26.08h93.94l-12.42,41.22h-41.71c-18.75,0-23.29-2.13-11.73,8.22l25.27,23.64c6.47,6.2,14.54,12.46,12.09,21.39l-7.91,26.19c-2.86,10.38-12.7,9.93-26.55,9.62H50.21l10.67-34.81Z"/>
      <path id="path2547" class="cls-3" d="M3.36,208.3L47.71,60.15C61.56,18.26,85.93,4.2,126.24,2.76H703.38l-45.76,151.27c-9.94,36.28-44.52,57.59-82.73,54.27H3.36Z"/>
    </g>
    <path id="path3001" class="cls-1" d="M51.01,170.05c0-.49,6.34-21.51,9.59-31.81l.71-2.23,27.93,.05c15.36,.03,28.33,.04,28.82,.03,.49-.02,.8-.47,.68-1.01-.12-.54-8.16-9.28-17.86-19.42-18.79-19.63-21.64-23.06-22.81-27.39-.98-3.63-.51-6.59,3.17-19.99,4.65-16.96,7.13-21.34,14.15-25.04l3.45-1.82,52.41-.19c29.35-.11,52.41,.07,52.41,.4s-2.6,9.24-5.77,19.81c-3.17,10.57-5.77,19.33-5.77,19.45s-12.75,.23-28.33,.24c-15.58,0-29.01,.19-29.85,.42-3.62,.97-2.37,2.4,22.56,25.71,17.57,16.43,19.34,18.65,19.34,24.3,0,3.01-7.05,27.46-9.25,32.1-1.47,3.09-5.1,5.47-9.69,6.34-4.65,.88-105.91,.95-105.91,.07h0Z"/>
    <path id="path3003" class="cls-1" d="M189.42,170.19c0-1.63,35.06-115.8,36.34-118.32,1.88-3.72,5.46-7.01,9.73-8.96,2.76-1.26,4.71-1.45,16.67-1.69,8.49-.17,14.45,0,15.98,.46,4.14,1.24,8.63,4.73,11.38,8.83,1.44,2.15,8.85,15.7,16.48,30.11,7.63,14.41,14.25,26.36,14.71,26.55,.5,.21,1.24-.59,1.81-1.95,.72-1.73,17.24-55.85,19.22-62.96,.31-1.1,2.16-1.19,26.71-1.19,17.66,0,26.38,.23,26.38,.7,0,.38-7.94,27.18-17.65,59.54-13.19,43.97-18.13,59.53-19.53,61.55-4.52,6.54-11.89,8.09-36.41,7.68-17.49-.29-18.75-.58-22.91-5.21-1.22-1.36-8.79-14.15-16.81-28.42-8.02-14.27-14.82-25.95-15.1-25.95-.28,0-.51,.56-.51,1.25,0,.99-13.36,46.92-16.36,56.25l-.71,2.21h-24.71c-13.59,0-24.71-.21-24.71-.48h0Z"/>
    <path id="path3005" class="cls-1" d="M385.28,169.92c-8.76-1.28-12.63-5.56-12.65-13.98,0-2.69,.32-6.5,.73-8.48,1.52-7.37,27.31-91.93,29.01-95.1,2.21-4.15,6.04-7.45,10.91-9.42l3.79-1.53,53.49-.19,53.49-.19-.43,1.89c-.24,1.04-2.94,10.13-6,20.21l-5.57,18.32-33.24,.18-33.24,.18-7.38,24.25c-4.06,13.34-7.53,24.63-7.71,25.1-.26,.67,6.55,.85,32.66,.85,18.14,0,32.98,.17,32.98,.38,0,.3-4.31,15.37-10.6,37.11-.32,1.12-3.17,1.18-48.3,1.1-26.38-.05-49.74-.34-51.92-.66h0Z"/>
    <path id="path3007" class="cls-1" d="M507.64,170.18c0-.27,7.36-24.93,16.37-54.8,9.73-32.29,17.39-56.5,18.89-59.73,3.12-6.71,6.73-10.52,11.99-12.64l3.98-1.6,48.34-.19c35.94-.14,48.34,0,48.34,.58,0,.68-5.1,18.34-9.93,34.37l-1.68,5.59-28.6,.18-28.6,.18-3.21,9.84c-1.77,5.41-3.23,10.07-3.25,10.35s12.82,.51,28.53,.51c22.57,0,28.5,.18,28.25,.85-.18,.47-2.58,8.25-5.33,17.29l-5.01,16.45h-28.64s-28.64,.01-28.64,.01l-.7,2.54c-.38,1.4-2.49,8.8-4.68,16.45l-3.98,13.91-26.22,.18c-14.42,.1-26.22-.05-26.22-.32h0Z"/>
    <path id="path3009" class="cls-1" d="M.8,210.06c0-.98,43.92-147.62,45.94-153.38,4.43-12.64,11.17-24.55,18.57-32.79C75.25,12.79,90.13,5.5,110.09,1.92c5.92-1.06,28.25-1.16,301.34-1.36l294.95-.22-.62,1.88c-.34,1.03-11.18,36.81-24.08,79.51-12.9,42.7-24.37,79.82-25.48,82.49-3.68,8.83-8.49,15.77-16.22,23.42-12.81,12.65-27.33,19.74-45.82,22.37-6.31,.9-593.35,.96-593.35,.07h0Zm597.63-5.15c17.9-3.39,33.23-12.38,43.98-25.76,4.47-5.57,9.41-14.36,11.43-20.36,.86-2.55,24.27-79.77,46.23-152.49,.34-1.13-13.76-1.19-289.58-1.18-192.03,0-292,.24-296.04,.7-13.04,1.47-26.03,5.66-34.5,11.11-11.54,7.43-21.42,20.69-27.86,37.38-1.01,2.61-11.7,37.72-23.76,78.03L6.4,205.61l286.07,.39c157.34,.21,289.35,.28,293.35,.16,4-.13,9.68-.68,12.61-1.24h0Z"/>
    <path id="path3011" class="cls-2" d="M7.85,203.6c.68-2.72,26-87.03,35.97-119.79,7.38-24.25,9.93-31.68,12.92-37.75,6.67-13.51,15.95-24.06,26.33-29.94,5.99-3.39,16.82-7.08,25.72-8.77,5.99-1.13,22.1-1.2,297.86-1.22,160.34-.01,291.74,.19,291.99,.44,.25,.25-9.98,34.91-22.74,77.01-25.66,84.7-25.41,83.99-34.56,95.42-8.75,10.91-22.76,19.84-37.69,24.02l-6.79,1.9-294.72,.17-294.72,.17,.42-1.68h0Zm148.96-32.93c5.35-1.02,8.04-2.57,9.85-5.69,2.36-4.07,9.87-29.48,9.87-33.4,0-5.64-1.82-8.13-15.5-21.12-6.96-6.62-16.17-15.54-20.46-19.82l-7.8-7.79,4.07-.46c2.24-.25,15.7-.49,29.92-.53l25.85-.07,5.95-19.82c3.27-10.9,6.1-20.22,6.29-20.71,.28-.74-9.09-.86-53.17-.71l-53.51,.19-3.62,2c-6.7,3.71-9.23,8.3-14.08,25.48-3.81,13.51-4.21,18.91-1.78,23.86,1.01,2.05,7.87,9.79,19.56,22.05,9.9,10.39,18.29,19.42,18.65,20.07,.61,1.12-.91,1.19-27.83,1.19s-28.5,.08-28.82,1.19c-.93,3.24-10.07,33-10.39,33.82-.31,.81,7.33,.95,51.52,.95,31.34,0,53.29-.27,55.42-.67h0Zm83.67-2.55c.52-1.77,4.42-14.91,8.65-29.2l7.7-25.98,3.29,5.62c1.81,3.09,8.24,14.42,14.3,25.18,6.05,10.76,11.88,20.61,12.94,21.9,1.06,1.29,3.2,3.02,4.75,3.85,2.74,1.46,3.41,1.51,23.51,1.48,19.86-.02,20.85-.09,24.55-1.56,2.13-.85,5.05-2.73,6.53-4.21,3.2-3.2,1.49,1.98,22.85-69.18,8.79-29.29,16.15-53.8,16.36-54.45,.34-1.12-1.25-1.19-27.01-1.19h-27.37l-9.74,32.06c-5.36,17.63-9.96,32.48-10.23,32.99-.59,1.13-3.28-3.53-18.35-31.8-12.94-24.27-13.19-24.7-16.8-27.95-5.32-4.8-5.82-4.93-20.62-5.17-14.73-.24-19.26,.43-24.29,3.61-3.18,2.01-6.29,6.04-7.76,10.07-1.82,4.99-35,115.1-35,116.15,0,.88,3.33,1.01,25.39,1.01h25.39l.95-3.22h0Zm250.77-15.94c3.05-10.54,5.54-19.54,5.53-20,0-.64-7.39-.87-32.18-1.02-17.7-.1-32.36-.37-32.58-.6-.22-.22,2.86-11.14,6.86-24.25l7.27-23.84,33.23-.18,33.23-.18,5.65-18.66c3.11-10.26,5.93-19.66,6.28-20.88l.63-2.22-54.4,.19c-51.91,.18-54.54,.25-57.45,1.49-4.96,2.12-8.51,4.87-10.73,8.34-1.56,2.44-5.41,14.23-15.34,47.07-7.29,24.1-13.71,45.78-14.28,48.17-1.6,6.8-1.38,14.69,.51,18.33,1.87,3.6,6.08,5.98,11.89,6.73,2.12,.27,25.56,.54,52.09,.58l48.24,.09,5.54-19.17h0Zm70.59,14.59c.74-2.52,2.3-7.94,3.47-12.04,1.17-4.1,2.73-9.52,3.46-12.04l1.34-4.57,28.62-.18,28.62-.18,4.91-15.94c2.7-8.77,5.1-16.77,5.33-17.78l.42-1.84-27.81-.2c-15.3-.11-28-.39-28.24-.63-.24-.24,.87-4.59,2.46-9.67l2.89-9.24h28.7c15.79,0,28.7-.11,28.7-.25,0-.22,10.92-37.38,11.93-40.63,.35-1.12-2.23-1.19-47.78-1.19s-48.32,.05-52.56,1.36c-6.04,1.87-10.58,5.99-13.68,12.45-1.37,2.85-9.23,27.7-19.02,60.15-9.18,30.41-16.82,55.68-16.98,56.15-.23,.67,5.43,.85,26.8,.85h27.09l1.34-4.58h0Z"/>
  </g>
</svg>