<svg width="212" height="111" viewBox="0 0 212 111" fill="none" xmlns="http://www.w3.org/2000/svg">
<path fill-rule="evenodd" clip-rule="evenodd" d="M0.0187988 3.77252C0.0187988 1.44827 1.54754 0.361336 3.90004 0.262527L3.91754 0.262276C7.54129 0.116402 12.3876 -0.0012207 18.2551 -0.0012207C59.1301 -0.0012207 149.255 5.59878 209.505 44.2113C211.396 45.415 211.848 46.54 211.151 48.7563C210.826 49.8188 192.076 108.494 192.076 108.494C191.295 110.687 189.969 110.838 188.308 110.838H3.30754C1.31254 110.838 0.0187988 109.204 0.0187988 107.398V3.77252ZM114.698 70.6901C114.058 75.0281 115.084 78.9191 117.671 81.935C121.106 85.9531 127.175 87.7551 134.755 87.7551C138.275 87.7551 141.643 87.4164 144.368 86.7294L157.212 46.5817H195.05L192.702 54.025H165.766L161.865 66.1968H184.473L182.172 73.3767H159.569L153.683 91.9144C151.425 93.1235 142.349 95.7583 132.309 95.7583C116.777 95.7583 105.819 88.3527 104.112 77.3336C104.088 77.1689 103.961 77.1171 103.763 77.1171C103.575 77.1171 103.453 77.1548 103.392 77.3336L97.7739 94.8832H86.416C82.7085 81.0317 75.7922 67.9141 68.8241 57.9443C68.8241 57.9443 61.9924 79.1309 61.9171 79.3661C61.8654 79.5355 61.7713 79.5825 61.5783 79.5825C61.3854 79.5825 61.2584 79.5449 61.1972 79.3661C60.1574 76.3267 58.8965 74.1906 54.9161 71.2312L62.8346 46.5817H73.4255C82.0686 57.3091 89.1355 70.4501 92.5702 80.4436L103.363 46.5817H113.225L109.852 57.1632C109.795 57.3467 109.936 57.3844 110.143 57.3844H110.151C110.284 57.3845 110.496 57.3846 110.703 57.1632C117.436 49.9128 127.825 45.8007 139.771 45.8007C143.629 45.8007 147.562 46.0124 150.809 46.5111L148.146 54.3167C145.52 53.9826 142.598 53.8039 139.761 53.8039C126.291 53.8039 116.222 60.3438 114.698 70.6901ZM56.1205 46.9204L53.8716 53.9921C51.3261 53.4039 49.1007 53.004 45.9719 52.9287C39.7848 52.7876 32.9578 54.2696 31.6404 58.1748C30.6501 61.1039 34.1908 62.7825 39.7513 65.4185C40.4519 65.7507 41.1846 66.098 41.9444 66.465C42.102 66.5411 42.2603 66.6175 42.4193 66.6942C51.0033 70.8357 61.3346 75.8201 57.0615 84.8004C53.3822 92.526 44.1934 96.0971 30.0031 95.7725C22.4469 95.5984 13.5921 92.8883 9.29639 90.8934L12.7687 83.3842C18.6076 86.3248 26.018 88.028 31.9604 88.1692C38.8203 88.3244 43.5394 86.8753 44.9791 83.8218C46.8329 79.8837 41.5633 76.8772 34.8963 73.7154C26.4979 69.735 16.8056 64.9029 20.2214 56.3116C23.1056 49.0659 34.3176 45.6454 46.72 45.9324C50.5781 46.0218 52.8882 46.3276 56.1205 46.9204Z" fill="white"/>
</svg>
